<svg xmlns="http://www.w3.org/2000/svg" xmlns:xlink="http://www.w3.org/1999/xlink" viewBox="0,0,256,256" width="30px" height="30px"><g fill="#c8c8c8" fill-rule="nonzero" stroke="none" stroke-width="1" stroke-linecap="butt" stroke-linejoin="miter" stroke-miterlimit="10" stroke-dasharray="" stroke-dashoffset="0" font-family="none" font-weight="none" font-size="none" text-anchor="none" style="mix-blend-mode: normal"><g transform="scale(8.53333,8.53333)"><path d="M24.414,13.914l-12.169,-12.169c-0.459,-0.459 -1.245,-0.134 -1.245,0.516v9.739l-3.79,-3.79c-0.447,-0.447 -1.21,-0.131 -1.21,0.501v10.961c0,0.53 0.211,1.039 0.586,1.414l5.328,5.328c0.375,0.375 0.884,0.586 1.414,0.586h4.299c0.556,0 1.087,-0.232 1.466,-0.639l5.372,-5.785c0.344,-0.37 0.535,-0.857 0.535,-1.361v-3.886c0,-0.531 -0.211,-1.04 -0.586,-1.415zM20.5,18.086c0,0.265 -0.105,0.52 -0.293,0.707l-4,4c-0.391,0.391 -1.024,0.391 -1.414,0l-4,-4c-0.188,-0.188 -0.293,-0.442 -0.293,-0.707v-1.172c0,-0.265 0.105,-0.52 0.293,-0.707l1.5,-1.5c0.391,-0.391 1.024,-0.391 1.414,0l1.793,1.793l1.793,-1.793c0.391,-0.391 1.024,-0.391 1.414,0l1.5,1.5c0.188,0.188 0.293,0.442 0.293,0.707z"></path></g></g></svg>